<?xml version="1.0" encoding="utf-8"?>
<!-- Generator: Adobe Illustrator 23.0.4, SVG Export Plug-In . SVG Version: 6.00 Build 0)  -->
<svg version="1.1" xmlns="http://www.w3.org/2000/svg" xmlns:xlink="http://www.w3.org/1999/xlink" x="0px" y="0px"
	 viewBox="0 0 195.6 255.1" style="enable-background:new 0 0 195.6 255.1;" xml:space="preserve">
<style type="text/css">
	.st0{fill:#2F384B;}
	.st1{fill:#E5006F;}
	.st2{fill:#AEB0B2;}
	.st3{fill:#182B50;}
	.st4{fill:#CB0B79;}
	.st5{fill:#DF0073;}
	.st6{fill:#FFFFFF;}
	.st7{fill:none;}
	.st8{font-family:'MyriadPro-Regular';}
	.st9{font-size:28px;}
	.st10{fill:none;stroke:#81B951;stroke-miterlimit:10;stroke-dasharray:1,2;}
	.st11{fill:none;stroke:#81B951;stroke-miterlimit:10;}
	.st12{fill:none;stroke:#81B951;stroke-miterlimit:10;stroke-dasharray:1.0023,2.0046;}
	.st13{fill:none;stroke:#81B951;stroke-width:1.0712;stroke-miterlimit:10;}
	.st14{fill:none;stroke:#81B951;stroke-width:1.0712;stroke-miterlimit:10;stroke-dasharray:1.0716,2.1433;}
	.st15{fill:none;stroke:#81B951;stroke-width:0.9502;stroke-miterlimit:10;stroke-dasharray:0.9502,1.9003;}
	.st16{fill:none;stroke:#81B951;stroke-width:1.0504;stroke-miterlimit:10;stroke-dasharray:1.0504,2.1008;}
	.st17{fill:none;stroke:#81B951;stroke-width:2;stroke-miterlimit:10;stroke-dasharray:1.1448,3.4344;}
	.st18{fill:none;stroke:#81B951;stroke-width:2;stroke-miterlimit:10;stroke-dasharray:1.1484,3.4453;}
	.st19{fill:none;stroke:#81B951;stroke-width:2;stroke-miterlimit:10;}
	.st20{fill:none;stroke:#81B951;stroke-width:2;stroke-miterlimit:10;stroke-dasharray:0.7673,2.3019;}
	.st21{fill:none;stroke:#81B951;stroke-width:2;stroke-miterlimit:10;stroke-dasharray:0.6113,1.8338;}
	.st22{fill:none;stroke:#81B951;stroke-width:2;stroke-miterlimit:10;stroke-dasharray:1.1805,1.1805;}
	.st23{fill:none;stroke:#81B951;stroke-width:2;stroke-miterlimit:10;stroke-dasharray:0.6067,0.6067;}
</style>
<g id="Ebene_1">
	<g>
		<path class="st0" d="M131.6,3.3v181.4c0,1.8-1.5,3.3-3.3,3.3H78.5c-1.8,0-3.3-1.5-3.3-3.3v-110c0-1.8-1.5-3.3-3.3-3.3H14.6
			c-1.8,0-3.3,1.5-3.3,3.3v88.4h0c0.1,50.8,41.3,92,92.1,92s92.1-41.2,92.1-92h0V3.3c0-1.8-1.5-3.3-3.3-3.3h-57.3
			C133.1,0,131.6,1.5,131.6,3.3z"/>
		<path class="st5" d="M38.3,34.9h33.4c1.2,0,2.3-0.7,2.9-1.7l17-30.7C92.3,1.4,91.5,0,90.2,0H3.4C1.5,0,0,1.5,0,3.4v86.8
			c0,1.3,1.4,2.1,2.5,1.5l30.7-17c1.1-0.6,1.7-1.7,1.7-2.9V38.3C34.9,36.4,36.4,34.9,38.3,34.9z"/>
	</g>
</g>
<g id="CONSTRUCTION">
</g>
</svg>
